<svg xmlns="http://www.w3.org/2000/svg" viewBox="0 0 215.25 162.19" width="75px" height="57px"><defs><style>.cls-1{fill:#fff;}</style></defs><title>anthem-javelin-icon-colossus</title><g id="Layer_2" data-name="Layer 2"><g id="Layer_1-2" data-name="Layer 1"><polygon class="cls-1" points="209.25 35.74 208.72 34.88 198.24 41.33 198.44 41.06 174.86 55.69 174.88 55.71 169.83 58.81 150.01 71.12 142.63 105.54 72.62 105.54 65.24 71.12 45.39 58.8 40.37 55.71 40.39 55.69 16.81 41.06 17.01 41.33 6.53 34.88 6 35.74 0 69 36.37 91.38 48.69 148.88 71.73 162.19 83.32 155.49 79.58 138.02 135.67 138.02 131.93 155.49 143.52 162.19 166.56 148.88 178.88 91.38 215.25 69 209.25 35.74"/><polygon class="cls-1" points="153.5 0 107.63 0 61.75 0 29.1 23.74 54.45 45.47 72.31 32.48 107.63 32.48 142.94 32.48 160.8 45.47 186.15 23.74 153.5 0"/></g></g></svg>