<svg xmlns="http://www.w3.org/2000/svg" viewBox="0 0 227.31 159.26" width="80px" height="56px"><defs><style>.cls-1{fill:#fff;}</style></defs><title>anthem-javelin-icon-storm</title><g id="Layer_2" data-name="Layer 2"><g id="Layer_1-2" data-name="Layer 1"><path class="cls-1" d="M94.72,100.78,56.73,35a.57.57,0,0,0-.15-.16L0,0V.05L18.57,49.56h0l14,8.6a.41.41,0,0,1,.16.16l7.35,12.73a.46.46,0,0,0,.17.17L94.11,101.4A.45.45,0,0,0,94.72,100.78Z"/><path class="cls-1" d="M170.58,35l-38,65.81a.45.45,0,0,0,.61.62l53.87-30.17a.4.4,0,0,0,.17-.17l7.35-12.73a.49.49,0,0,1,.16-.16l14-8.6h0L227.3.05V0L170.74,34.81A.49.49,0,0,0,170.58,35Z"/><path class="cls-1" d="M113.67,126.79h0a6.75,6.75,0,0,1-5.85-3.38l-7.4-12.81a.44.44,0,0,0-.28-.22L57.78,100.23a.45.45,0,0,0-.49.66L90.86,159a.44.44,0,0,0,.39.22h44.81a.44.44,0,0,0,.39-.22L170,100.89a.45.45,0,0,0-.49-.66l-42.32,10.15a.46.46,0,0,0-.29.22l-7.39,12.81A6.78,6.78,0,0,1,113.67,126.79Z"/></g></g></svg>