<?xml version="1.0" encoding="utf-8"?>
<!-- Generator: Adobe Illustrator 15.0.2, SVG Export Plug-In . SVG Version: 6.00 Build 0)  -->
<!DOCTYPE svg PUBLIC "-//W3C//DTD SVG 1.1//EN" "http://www.w3.org/Graphics/SVG/1.1/DTD/svg11.dtd">
<svg version="1.1" id="Calque_1" xmlns="http://www.w3.org/2000/svg" xmlns:xlink="http://www.w3.org/1999/xlink" x="0px" y="0px"
	 width="36px" height="36px" viewBox="0 0 36 36" enable-background="new 0 0 36 36" xml:space="preserve">
<rect fill="none" width="36" height="36"/>
<path fill="#6F7F8F" d="M27,26.293l-4.859-4.86C23.295,20.113,24,18.391,24,16.5c0-4.143-3.357-7.5-7.5-7.5
	C12.358,9,9,12.357,9,16.5s3.358,7.5,7.5,7.5c1.891,0,3.613-0.705,4.934-1.86L26.293,27L27,26.293z M16.5,23
	c-3.584,0-6.5-2.916-6.5-6.5s2.916-6.5,6.5-6.5s6.5,2.916,6.5,6.5S20.084,23,16.5,23z"/>
</svg>
