<?xml version="1.0" encoding="utf-8"?>
<!-- Generator: Adobe Illustrator 19.2.1, SVG Export Plug-In . SVG Version: 6.00 Build 0)  -->
<svg version="1.1" id="Calque_1" xmlns="http://www.w3.org/2000/svg" xmlns:xlink="http://www.w3.org/1999/xlink" x="0px" y="0px"
	 viewBox="0 0 15 15" style="enable-background:new 0 0 15 15;" xml:space="preserve">
<style type="text/css">
	.st0{fill:#FF3F00;}
</style>
<title>icone_profil</title>
<path class="st0" d="M7.5,0C11.6,0,15,3.4,15,7.5S11.6,15,7.5,15S0,11.6,0,7.5S3.4,0,7.5,0L7.5,0z M7.5,8.1c1.4,0,2.6-1.2,2.6-2.6
	C10.1,4.2,8.9,3,7.5,3C6.1,3,4.9,4.2,4.9,5.6S6.1,8.1,7.5,8.1L7.5,8.1z M7.2,8.1c-2.2,0-3.9,1.7-4,3.9v0.7c2.4,1.7,5.6,1.7,8,0V12
	C11.1,9.8,9.4,8.1,7.2,8.1z"/>
</svg>
