<svg id="Calque_1" data-name="Calque 1" xmlns="http://www.w3.org/2000/svg" viewBox="0 0 14.15 10.6"><defs><style>.cls-1{fill:#6f7f8f;}</style></defs><title>icone_jeux</title><path id="icone_nav_-_jeux" data-name="icone nav - jeux" class="cls-1" d="M487.23,386.39c-0.48-2.55-1-5-1.24-6.45a0.92,0.92,0,0,0-.94-0.94H475.5a0.92,0.92,0,0,0-.94.94c-0.27,1.49-.76,4-1.24,6.57-0.71,3.82,1.91,4.91,3.83-1.52a1.21,1.21,0,0,0,1.22,1.33,1.13,1.13,0,0,0,1.22-1.32H481a1.11,1.11,0,0,0,1.22,1.29,1.22,1.22,0,0,0,1.22-1.34C485.32,391.38,487.94,390.2,487.23,386.39Z" transform="translate(-473.2 -379)"/></svg>