<svg id="Calque_1" data-name="Calque 1" xmlns="http://www.w3.org/2000/svg" viewBox="0 0 15 15"><defs><style>.cls-1{fill:#6f7f8f;}</style></defs><title>icone_equipes</title><path id="icone_nav_-_équipes" data-name="icone nav - équipes" class="cls-1" d="M480.28,341.47c-1.52,1.54-7.5,2.5-7.5,2.5s0.63,5.45,1.77,7.94,5.73,4.56,5.73,4.56,4.6-2.07,5.73-4.56,1.77-7.94,1.77-7.94S481.8,343,480.28,341.47Zm0,8.14a2.57,2.57,0,1,1,2.57-2.57A2.57,2.57,0,0,1,480.28,349.61Zm3.79,3.22a16.66,16.66,0,0,1-3.79,2.54,16.76,16.76,0,0,1-3.79-2.54A3.84,3.84,0,0,1,484.07,352.83Z" transform="translate(-472.78 -341.47)"/></svg>