<?xml version="1.0" encoding="utf-8"?>
<!-- Generator: Adobe Illustrator 15.0.2, SVG Export Plug-In . SVG Version: 6.00 Build 0)  -->
<!DOCTYPE svg PUBLIC "-//W3C//DTD SVG 1.1//EN" "http://www.w3.org/Graphics/SVG/1.1/DTD/svg11.dtd">
<svg version="1.1" id="Calque_1" xmlns="http://www.w3.org/2000/svg" xmlns:xlink="http://www.w3.org/1999/xlink" x="0px" y="0px"
	 width="180px" height="180px" viewBox="0 0 180 180" enable-background="new 0 0 180 180" xml:space="preserve">
<title>icone_jeux2</title>
<path fill="#FFFFFF" d="M178.484,120.324c-6.065-32.385-12.285-66.091-15.551-85.18c-1.711-9.408-6.26-15.123-12.014-15.123H29.235
	c-5.754,0-10.264,5.715-12.013,15.123c-3.46,18.933-9.681,52.795-15.551,85.18c-9.059,48.557,24.337,63.33,48.674-18.506
	c0,10.77,6.959,16.834,15.551,16.834c8.801-0.201,15.772-7.498,15.572-16.299c-0.004-0.179-0.011-0.357-0.021-0.535h17.416
	c-0.496,8.789,6.228,16.316,15.017,16.813c0.179,0.01,0.356,0.018,0.534,0.021c8.592,0,15.551-6.064,15.551-16.834
	C154.264,183.615,187.542,168.842,178.484,120.324z"/>
</svg>
