<svg id="Calque_1" data-name="Calque 1" xmlns="http://www.w3.org/2000/svg" viewBox="0 0 15 15"><defs><style>.cls-1{fill:#ff3f00;}.cls-2{fill:#fff;}</style></defs><title>icone_visibilite</title><circle class="cls-1" cx="7.5" cy="7.5" r="7.5"/><path class="cls-2" d="M319.5,570.85c-3.31,0-6-3.85-6-3.85s2.69-3.85,6-3.85,6,3.85,6,3.85S322.81,570.85,319.5,570.85Z" transform="translate(-312 -559.5)"/><path class="cls-1" d="M319.5,565a2,2,0,1,1-2,2,2,2,0,0,1,2-2m0-1a3,3,0,1,0,3,3,3,3,0,0,0-3-3h0Z" transform="translate(-312 -559.5)"/><circle class="cls-1" cx="7.5" cy="7.5" r="2"/></svg>