<svg id="Calque_1" data-name="Calque 1" xmlns="http://www.w3.org/2000/svg" viewBox="0 0 14 11"><defs><style>.cls-1{fill:#6f7f8f;}</style></defs><title>icone_photos</title><g id="icone_nav_-_photos" data-name="icone nav - photos"><path class="cls-1" d="M473,443v11h14V443H473Zm13,10H474v-9h12v9Z" transform="translate(-473 -443)"/><path class="cls-1" d="M482.7,449.21a1.81,1.81,0,0,1-1.71-1.83,1.76,1.76,0,0,1,1.71-1.77,1.69,1.69,0,0,1,1.71,1.69,1.83,1.83,0,0,1-1.85,1.7,2.45,2.45,0,0,1,2.43,2.56V445H475v7h5.13C480.13,450,481.28,449.21,482.7,449.21Z" transform="translate(-473 -443)"/></g></svg>