<svg id="Calque_1" data-name="Calque 1" xmlns="http://www.w3.org/2000/svg" viewBox="0 0 11.1 12.84"><defs><style>.cls-1{fill:#6f7f8f;}</style></defs><title>icone_invitations</title><path id="icone_nav_-_invitations" data-name="icone nav - invitations" class="cls-1" d="M485.52,177.76a0.88,0.88,0,0,0-.94.69l-0.83,2-0.22,0,1.69-4.09a0.88,0.88,0,0,0-.16-1.15,0.92,0.92,0,0,0-.95.69l-1.93,4.3-0.52-.09-0.29-5.35a0.88,0.88,0,0,0-.65-1,0.91,0.91,0,0,0-.56,1l0.16,5-0.2,0L480,175.74a0.86,0.86,0,0,0-.63-1,0.93,0.93,0,0,0-.59,1l0.05,3.76h0v0.88l-0.87,1.36a16.91,16.91,0,0,0-2.1-1.64c-0.42-.15-1.41.48-1,0.94s2.1,2.27,2.1,2.27l2.12,2.19,0,1,5.16-.83,0.81-5.06h0l0.67-1.79A0.92,0.92,0,0,0,485.52,177.76Z" transform="translate(-474.73 -173.77)"/></svg>