<svg id="Calque_1" data-name="Calque 1" xmlns="http://www.w3.org/2000/svg" viewBox="0 0 15 15"><defs><style>.cls-1{fill:none;}.cls-2{fill:#373f47;}</style></defs><title>icone_jeux3</title><rect class="cls-1" width="15" height="15"/><path class="cls-2" d="M303.68,423c-0.39-2.08-.79-4.26-1-5.48a1,1,0,0,0-.77-1h-7.81a1,1,0,0,0-.77,1c-0.22,1.22-.62,3.39-1,5.48-0.58,3.12,1.56,4.07,3.13-1.19a1,1,0,0,0,1,1.08,1,1,0,0,0,1-1.08h1.12a1,1,0,0,0,1,1.08,1,1,0,0,0,1-1.08C302.11,427.11,304.26,426.16,303.68,423Z" transform="translate(-290.49 -413.58)"/></svg>