<svg id="Calque_1" data-name="Calque 1" xmlns="http://www.w3.org/2000/svg" viewBox="0 0 15 15"><defs><style>.cls-1{fill:#6f7f8f;}</style></defs><title>icone_parametres</title><g id="icone_nav_-_paramètres" data-name="icone nav - paramètres"><path class="cls-1" d="M488,251v-3h-1.41a4.69,4.69,0,0,0-.79-2l0.84-.9-2.12-2.15-0.73.82c-0.58-.36-1.79-0.64-1.79-0.81V242h-3v0.94a4.66,4.66,0,0,0-2,.79l-0.89-.84L473.94,245l0.82,1a4.69,4.69,0,0,0-.81,2h-1v3h1c0.16,0,.43,1.2.79,1.79l-0.84.78,2.12,2.09,0.95-.85a4.66,4.66,0,0,0,2,.78V257h3v-1.42c0-.16,1.21-0.43,1.79-0.79l0.78,0.84,2.09-2.12-0.85-.72c0.36-.58.62-1.79,0.78-1.79H488Zm-7.72,3.76a5.5,5.5,0,1,1,5.5-5.5A5.51,5.51,0,0,1,480.28,254.76Z" transform="translate(-473 -242)"/><circle class="cls-1" cx="7.28" cy="7.26" r="4.5"/></g></svg>