<svg id="Calque_1" data-name="Calque 1" xmlns="http://www.w3.org/2000/svg" viewBox="0 0 46.3 36"><defs><style>.cls-1{fill:#373f47;}</style></defs><title>icone_jeux2</title><path class="cls-1" d="M208.23,130.64c-1.56-8.33-3.16-17-4-21.91-0.44-2.42-1.61-3.89-3.09-3.89H169.84c-1.48,0-2.64,1.47-3.09,3.89-0.89,4.87-2.49,13.58-4,21.91-2.33,12.49,6.26,16.29,12.52-4.76,0,2.77,1.79,4.33,4,4.33a4.1,4.1,0,0,0,4-4.33h4.48a4.1,4.1,0,0,0,4,4.33c2.21,0,4-1.56,4-4.33C202,146.92,210.56,143.12,208.23,130.64Z" transform="translate(-162.32 -104.84)"/></svg>