<?xml version="1.0" encoding="utf-8"?>
<!-- Generator: Adobe Illustrator 15.0.2, SVG Export Plug-In . SVG Version: 6.00 Build 0)  -->
<!DOCTYPE svg PUBLIC "-//W3C//DTD SVG 1.1//EN" "http://www.w3.org/Graphics/SVG/1.1/DTD/svg11.dtd">
<svg version="1.1" id="Calque_1" xmlns="http://www.w3.org/2000/svg" xmlns:xlink="http://www.w3.org/1999/xlink" x="0px" y="0px"
	 width="18px" height="36px" viewBox="0 0 18 36" enable-background="new 0 0 18 36" xml:space="preserve">
<rect x="0" fill="none" width="18" height="18"/>
<rect x="0" y="18" fill="none" width="18" height="18"/>
<g>
	<circle fill="#FFFFFF" cx="9" cy="9" r="7.5"/>
	<path fill="#171F27" d="M9,15.5c-1.736,0-3.368-0.676-4.596-1.903C3.176,12.369,2.5,10.736,2.5,9s0.676-3.368,1.904-4.596
		C5.632,3.176,7.264,2.5,9,2.5s3.368,0.676,4.596,1.904C14.824,5.632,15.5,7.264,15.5,9s-0.676,3.369-1.904,4.597
		C12.368,14.824,10.736,15.5,9,15.5z"/>
	<g>
		<rect x="8.5" y="6.5" transform="matrix(0.7071 0.7071 -0.7071 0.7071 9 -3.7279)" fill="#FFFFFF" width="1" height="4.999"/>
		<rect x="8.5" y="6.5" transform="matrix(-0.7071 0.7071 -0.7071 -0.7071 21.7279 9)" fill="#FFFFFF" width="1" height="4.999"/>
	</g>
</g>
<g>
	<circle fill="#FFFFFF" cx="9" cy="27" r="7.5"/>
	<path fill="#FF3F00" d="M9,33.5c-1.736,0-3.368-0.676-4.596-1.903S2.5,28.736,2.5,27s0.676-3.368,1.904-4.596
		C5.632,21.176,7.264,20.5,9,20.5s3.368,0.676,4.596,1.904C14.824,23.632,15.5,25.264,15.5,27s-0.676,3.369-1.904,4.597
		C12.368,32.824,10.736,33.5,9,33.5z"/>
	<g>
		
			<rect x="8.5" y="24.5" transform="matrix(0.7071 0.7071 -0.7071 0.7071 21.7279 1.5442)" fill="#FFFFFF" width="1" height="4.999"/>
		
			<rect x="8.5" y="24.5" transform="matrix(-0.7071 0.7071 -0.7071 -0.7071 34.4558 39.7279)" fill="#FFFFFF" width="1" height="4.999"/>
	</g>
</g>
</svg>
